<svg version="1.1" id="jogja_logo" xmlns="http://www.w3.org/2000/svg" viewBox="0 295.445 595.279 252">
<path fill="#FFFFFF" d="M277.401,374.869l-0.544-0.28c0-8.991,6.271-16.073,6.822-19.344c-10.639-0.273-21.258,0-31.888,0
	c-11.44,0-17.452,0.811-25.082,6.538c-14.987,11.178-14.708,24.788-17.984,45.777c-1.358,8.991-2.997,17.723-4.347,27.254
	c-1.639,9.549-3.271,18.537,2.184,26.707c4.353,6.273,11.164,10.359,21.247,10.359c10.63,0,21.525-0.291,31.883,0
	c0.824,5.717-2.176,13.35-6.81,16.875c-5.173,4.084-12.813,3.266-20.709,3.266c-6.821,0-28.89-1.352-33.803,1.902
	c-2.176,1.633-4.632,3.818-4.902,7.633c8.447,0.299,59.683,0.549,65.133,0c9.53-1.088,16.068-5.713,21.253-11.174
	c6.268-6.547,7.905-11.727,9.814-22.891l13.613-83.667c0.817-5.987,4.362-24.25,4.362-28.883
	C292.659,355.518,282.564,365.057,277.401,374.869z M275.218,378.133c-1.632,10.63-9.538,69.763-13.356,75.765
	c-6.269,10.076-20.712,9.266-25.889,6.545c-4.093-2.184-5.994-6.277-5.178-12.543c2.184-19.352,6.275-41.415,9.813-61.036
	c1.909-11.174,2.183-19.077,13.631-21.804l0.267-0.544C264.047,362.326,277.401,364.225,275.218,378.133z"/>
<path fill="#FFFFFF" d="M476.596,461.798c-5.72-0.277-11.707,1.365-16.896-1.365c-7.629-4.076-5.173-15.266-3.544-21.809
	l12.546-77.383c0.271-2.183,0.798-4.085,0.271-6.271c-3.822-0.548-54.505-0.271-61.317,0c-5.445,0.273-13.071,2.183-17.444,5.44
	c-11.175,7.903-14.712,16.35-16.635,29.978c-2.46,16.627-5.449,33.244-8.167,49.602c-0.551,3.803-0.813,7.082-0.279,10.908
	c0.547,4.898,1.901,7.893,4.651,10.902c5.725,7.082,10.616,9.799,21.521,9.799h28.873c11.442,0,14.185-7.072,15.269-7.623
	c2.997,1.629,1.103,7.359,16.896,7.359c7.637,0,15.807,1.088,20.162-2.459C474.413,467.251,477.151,465.345,476.596,461.798z
	 M438.176,372.146c-4.075,25.075-8.438,49.861-12.263,74.943c-1.089,7.076-3.545,11.178-10.09,13.896
	c-2.72,1.102-13.072,1.9-16.063,0.541c-5.176-2.186-7.359-5.451-7.359-11.158l0,0v-0.016c0,0,0,0,0,0.016h0.271
	c3.802-24.004,6.829-49.61,11.718-73.323c1.099-5.447,4.893-9.535,9.532-11.448c5.18-1.899,19.642-1.084,25.078-1.084
	C438.722,367.776,438.722,369.145,438.176,372.146z"/>
<path fill="#FFFFFF" d="M182.555,359.065c-7.355-4.362-12.529-3.811-22.886-3.811c-4.902,0-23.437-0.544-26.707,0.267v-0.267
	c-16.344,4.355-27.795,11.714-30.512,30.245l-7.63,47.969c-1.632,8.988-3.808,19.338,2.184,27.521
	c8.722,11.438,16.356,10.895,29.979,10.895c7.085,0,20.712,0.814,27.254-0.273c7.354-1.092,14.168-4.363,18.804-9.248
	c10.626-11.441,9.266-13.631,12.266-28.352c1.633-10.898,4.361-23.158,5.446-33.788
	C192.381,385.769,198.639,368.594,182.555,359.065z M162.954,393.666c-1.095,7.363-8.725,56.414-10.904,60.224
	c-5.727,10.361-21.257,9.273-25.886,6.82c-8.724-4.627-4.088-17.436-2.729-27.789c2.459-15.258,4.905-30.25,7.357-45.513
	c2.178-8.991-0.544-12.532,7.356-19.341l0.271-0.28c4.902-4.082,16.083-4.903,21.53-2.179
	C169.495,370.78,164.306,381.677,162.954,393.666z"/>
<path fill="#FFFFFF" d="M3.801,501.318c8.447,0.811,20.17,0.264,28.888,0.264c4.092,0,9.542-0.541,12.81-1.629
	c6.814-2.451,11.988-6.535,16.895-11.986l2.986-4.098c1.372-2.184,1.64-2.723,2.463-5.174c1.634-4.635,3.803-18.799,4.638-24.254
	l4.901-30.781c0.277-2.183,0.544-4.082,0.817-6.268l4.903-30.795c0.282-2.176,0.282-1.632,0.544-2.987
	c0.275-0.814,0.275-2.453,0.544-3.271l3.808-23.98c-0.544-4.64-9.806,0-11.711,0.821c-11.992,4.906-20.436,16.34-21.527,28.886
	c-0.279,3.261-1.367,7.079-1.908,12.262l-11.964,73.853c-1.103,7.906-1.369,13.072-9.55,17.436
	c-8.443,4.645-19.896-1.633-25.074,5.73c-1.086,1.365-2.177,3.555-2.177,5.449L3.801,501.318z"/>
<path fill="#FFFFFF" d="M281.219,501.318c19.891,0,36.233,2.455,48.243-8.184c12.519-11.174,12.519-21.236,15.535-41.152
	c2.457-16.08,4.896-32.701,7.907-48.781l7.92-48.507c-14.451-1.084-28.615,12.81-32.171,23.977
	c-2.179,6.819-2.997,16.895-4.361,24.261c-1.364,8.167-2.721,16.073-3.812,24.241c-2.46,15.816-5.45,32.434-7.91,48.787
	c-2.997,20.439-19.351,14.172-25.068,17.172c-3.271,1.631-5.727,4.633-5.986,8.434L281.219,501.318z"/>
<path fill="#FFFFFF" d="M60.472,353.875c6.824,0,12.271-2.453,17.719-5.72l0.813-0.547c4.637-3.544,7.9-7.359,10.63-12.532
	c3.269-6.539,4.359-13.621,5.45-21.25c0.271-2.183,0.818-7.91,1.629-9.265c-6.542,0-7.898,0.818-12.531,2.717
	c-0.277,0.28-0.544,0.28-1.085,0.28c-0.814,0.274-0.276,0.274-1.084,0.544c-0.281,0.281-1.64,0.821-1.913,1.085
	c-0.821,0.547-0.821,0.28-1.633,0.821c-3.548,2.453-7.089,5.721-9.814,9.262c-5.729,7.633-5.729,17.719-7.359,24.801
	c-0.544,2.72-1.632,7.079-1.092,9.809L60.472,353.875L60.472,353.875z"/>
<path fill="#FFFFFF" d="M332.179,354.163c3.261-0.277,7.902-0.825,11.178-2.183c5.159-2.179,11.438-6.548,14.715-11.174
	c3.541-5.183,6.258-8.454,7.623-17.171c0.551-3.548,0.813-6.271,1.358-9.265c0.547-2.72,1.635-6.815,0.811-9.809
	c-2.99-0.277-3.261,0-6.809,0.818c-1.103,0.274-2.46,0.821-3.813,1.362c-2.727,1.084-4.636,2.183-6.817,3.541
	c-12.811,8.724-14.992,18.537-17.172,34.066C332.72,347.337,332.179,350.331,332.179,354.163z"/>
<path fill="#FFFFFF" d="M445.537,510.582l0.537-5.18c-3-0.264-4.896,0-6.545,0.818c-1.901,2.463-5.163,25.605-5.987,30.521
	c9.263,0.547,8.175-1.906,10.094-13.086c0.823-5.443,4.085-13.898,10.35-12.533c1.365,4.646-2.717,19.621-2.997,25.619
	c15.267,1.365,4.362-16.076,15.8-24.811c1.372-1.088,3.274-1.629,4.369-0.541c1.629,3.275-2.732,20.172-2.997,25.094
	c9.251,1.357,8.718-4.646,11.429-21.264c0.813-5.449,0.279-10.084-5.171-10.898c-5.99-0.822-8.434,3.541-11.987,5.438
	c-0.809-4.086-3.274-6.264-8.167-5.17c-3.556,0.809-6.825,4.082-8.447,5.984h-0.277v0.008H445.537z"/>
<path fill="#FFFFFF" d="M587.803,520.666c0.54-3.268,2.713-13.08,2.441-15.529c-34.6-6.832-33.512,25.32-26.408,30.766
	c5.979,4.361,11.193,0.275,14.987-2.996v-0.277c1.636,2.455,2.185,4.652,6.535,4.908c4.085,0.27,5.984-1.912,6.549-5.449
	C583.441,532.386,586.716,527.484,587.803,520.666z M579.072,525.291c-1.095,2.996-5.991,9.002-9.806,5.449
	c-3.274-3.26-2.733-22.613,12.525-21.242C581.515,513.294,580.167,521.759,579.072,525.291z"/>
<path fill="#FFFFFF" d="M519.11,536.472l8.731,0.262c4.078-4.348,7.075-18.795,10.082-21.52v21.52
	c10.637,0.555,9.534-0.533,14.444-11.99c2.463-5.443,6.548-13.621,7.913-19.346c-9.527,0-8.17,2.184-11.181,9.813
	c-1.902,4.896-3.552,10.904-5.984,14.713l0.265-24.254c-10.354-0.824-9.259,2.996-15.808,20.168c-0.275,0.541-0.54,1.365-0.54,1.629
	l-1.089,1.629l-0.263,0.277v-23.984c-9.272-0.814-5.998,7.646-5.998,31.07h-0.574L519.11,536.472L519.11,536.472z"/>
<path fill="#FFFFFF" d="M507.943,528.564c0,0.014,0,0.035,0.007,0.035c0.091,0,0.187-0.049,0.271-0.035H507.943z"/>
<path fill="#FFFFFF" d="M513.102,511.947c-0.541-11.447-24.514-11.188-28.063,7.893c-2.183,12.283,4.085,19.645,16.08,17.471
	c1.902-0.299,4.637-1.637,5.737-2.475c1.896-1.352,2.713-3.26,1.088-6.229c-3.338,0.145-14.742,8.387-15.274-3.578
	c5.732-0.271,9.534-0.271,13.896-2.729C509.574,520.658,513.393,516.837,513.102,511.947z M502.769,518.488
	c-2.452,1.346-6.217,1.352-9.471,1.09h-0.071l0,0c0.011,0,0.041,0,0.071,0h0.21c0.544-4.086,6.53-13.357,11.193-8.725
	C507.124,513.294,504.117,517.658,502.769,518.488z"/>
<path fill="#FFFFFF" d="M369.236,528.564c-10.627,9.535,23.429,14.99,22.621-1.902c-0.283-8.162-8.184-7.629-12.546-10.625
	c-3.808-2.721-1.088-5.984,4.089-5.451c4.622,0.541,6.818,3.27,8.998-2.184c-2.46-4.361-11.708-4.635-16.084-2.99
	c-5.173,1.902-9.258,8.158-4.632,13.615c3.808,4.361,12.81,4.361,12.269,9.25C383.413,535.923,369.236,528.564,369.236,528.564z"/>
<path fill="#FFFFFF" d="M402.474,505.402c-1.085,0-2.457,0-3.271,0c-0.54,0-0.54,0-1.091,0.541
	c-0.537,0.811-0.801,3.268-0.537,4.896c0.271,0.27,1.905,0,3.268,0.27c-0.271,6.818-5.728,19.898-0.54,24.523
	c2.717,2.465,9.813,2.721,12.539,0.277c1.352-1.088,1.896-4.084,0-5.182c-1.103-0.531-4.646,2.186-6.829,0.291
	c-0.812-3.271,1.901-15.813,2.732-19.896c6.259-0.283,7.623,0.541,8.157-5.721c-2.46,0-4.64,0-7.075,0
	c0.271-2.459,0.54-4.646,0.824-7.094c-8.461,0-6.273,0.281-8.188,7.363v-0.27H402.474L402.474,505.402z"/>
<path fill="#FFFFFF" d="M418.283,536.734c8.994-0.262,7.355,0.555,9.81-12.254c1.088-6.268,2.46-12.811,3.001-19.357
	c-4.362,0-7.101-1.088-8.178,2.982l-4.896,28.617L418.283,536.734L418.283,536.734z"/>
<path fill="#FFFFFF" d="M351.53,536.734c3.531,0.277,6.813,0.826,8.171-2.719l4.899-28.604c-9.005,0-7.356-0.547-9.811,12.533
	c-1.088,5.988-2.463,12.783-2.996,19.064L351.53,536.734z"/>
<path fill="#FFFFFF" d="M357.247,501.582c2.456,0,4.637,0.289,6.534-0.541c1.913-1.629,2.184-4.086,2.184-7.354
	c-6.821,0-8.725,0.535-8.987,7.895H357.247L357.247,501.582z"/>
<path fill="#FFFFFF" d="M423.993,501.582l6.829-0.264c1.629-2.457,2.184-3.809,2.463-7.631c-7.358,0-8.446,0.535-8.998,7.895
	H423.993L423.993,501.582z"/>
</svg>
