<?xml version="1.0" encoding="iso-8859-1"?>
<!-- Generator: Adobe Illustrator 16.0.0, SVG Export Plug-In . SVG Version: 6.00 Build 0)  -->
<!DOCTYPE svg PUBLIC "-//W3C//DTD SVG 1.1//EN" "http://www.w3.org/Graphics/SVG/1.1/DTD/svg11.dtd">
<svg version="1.1" id="Capa_1" xmlns="http://www.w3.org/2000/svg" xmlns:xlink="http://www.w3.org/1999/xlink" x="0px" y="0px"
	 width="206.278px" height="206.278px" viewBox="0 0 206.278 206.278" style="enable-background:new 0 0 206.278 206.278;"
	 xml:space="preserve">
<g>
	<path d="M204.015,76.553l-99.22-54.89c-1.055-0.585-2.338-0.585-3.392,0L1.809,76.76c-1.4,0.775-2.096,2.397-1.697,3.942
		c0.4,1.545,1.795,2.628,3.393,2.628h3.561v4.969c0,1.935,1.569,3.504,3.504,3.504h4.271v4.974c0,1.934,1.57,3.504,3.504,3.504
		h4.966v60.81h-4.966c-1.934,0-3.504,1.571-3.504,3.505v4.973h-4.271c-1.935,0-3.504,1.57-3.504,3.504v8.477
		c0,1.934,1.569,3.504,3.504,3.504h185.069c1.934,0,3.504-1.57,3.504-3.504v-8.477c0-1.934-1.57-3.504-3.504-3.504h-4.274v-4.973
		c0-1.934-1.567-3.505-3.504-3.505h-4.963v-60.806h4.966c1.937,0,3.504-1.571,3.504-3.504v-4.973h4.274
		c1.934,0,3.505-1.57,3.505-3.504v-4.971h3.559c0.021,0,0.045-0.003,0.068,0c1.938,0,3.505-1.569,3.505-3.504
		C206.271,78.334,205.333,77.054,204.015,76.553z M103.099,28.735l86.023,47.59H17.077L103.099,28.735z M30.315,100.286h9.945
		v60.806h-9.945V100.286z M47.269,100.286h9.945v60.81h-9.945V100.286z M91.119,100.286v60.81h-9.945v-60.81H91.119z
		 M125.025,100.286v60.81h-9.944v-60.81H125.025z M141.979,161.089h-9.945v-60.803h9.945V161.089z M108.072,161.089h-9.945v-60.803
		h9.945V161.089z M74.165,161.089h-9.943v-60.803h9.943V161.089z M192.124,178.046H14.07v-1.469h4.271h169.515h4.271v1.469H192.124z
		 M184.352,169.569H21.845v-1.469h162.507V169.569z M148.987,161.092v-60.806h9.945v60.81h-9.945V161.092z M175.885,161.089h-9.945
		v-60.803h9.945V161.089z M184.355,93.277h-4.966h-16.953h-16.953H128.53h-16.954H94.623H77.669H60.718H43.764H26.811h-4.966v-1.468
		h162.51V93.277z M192.126,84.8h-4.271H18.341H14.07v-1.466h178.056V84.8z"/>
</g>
<g>
</g>
<g>
</g>
<g>
</g>
<g>
</g>
<g>
</g>
<g>
</g>
<g>
</g>
<g>
</g>
<g>
</g>
<g>
</g>
<g>
</g>
<g>
</g>
<g>
</g>
<g>
</g>
<g>
</g>
</svg>
