<?xml version="1.0" encoding="iso-8859-1"?>
<!-- Generator: Adobe Illustrator 17.1.0, SVG Export Plug-In . SVG Version: 6.00 Build 0)  -->
<!DOCTYPE svg PUBLIC "-//W3C//DTD SVG 1.1//EN" "http://www.w3.org/Graphics/SVG/1.1/DTD/svg11.dtd">
<svg version="1.1" id="Capa_1" xmlns="http://www.w3.org/2000/svg" xmlns:xlink="http://www.w3.org/1999/xlink" x="0px" y="0px"
	 viewBox="0 0 496 496" style="enable-background:new 0 0 496 496;" xml:space="preserve">
<path d="M488,124c-4.418,0-8,3.582-8,8v24c0,8.823-7.178,16-16,16s-16-7.177-16-16c0-4.418-3.582-8-8-8s-8,3.582-8,8
	c0,8.823-7.178,16-16,16s-16-7.177-16-16c0-4.418-3.582-8-8-8s-8,3.582-8,8c0,8.823-7.178,16-16,16s-16-7.177-16-16
	c0-4.418-3.582-8-8-8s-8,3.582-8,8c0,8.823-7.178,16-16,16s-16-7.177-16-16c0-4.418-3.582-8-8-8s-8,3.582-8,8
	c0,8.823-7.178,16-16,16s-16-7.177-16-16v-24c0-4.418-3.582-8-8-8s-8,3.582-8,8v24c0,8.823-7.178,16-16,16s-16-7.177-16-16
	c0-4.418-3.582-8-8-8s-8,3.582-8,8c0,8.823-7.178,16-16,16s-16-7.177-16-16c0-4.418-3.582-8-8-8s-8,3.582-8,8
	c0,8.823-7.178,16-16,16s-16-7.177-16-16c0-4.418-3.582-8-8-8s-8,3.582-8,8c0,8.823-7.178,16-16,16s-16-7.177-16-16
	c0-4.418-3.582-8-8-8s-8,3.582-8,8c0,8.823-7.178,16-16,16s-16-7.177-16-16v-24c0-4.418-3.582-8-8-8s-8,3.582-8,8v232
	c0,4.418,3.582,8,8,8s8-3.582,8-8v-16h224v16c0,4.418,3.582,8,8,8s8-3.582,8-8v-16h224v16c0,4.418,3.582,8,8,8s8-3.582,8-8V132
	C496,127.582,492.418,124,488,124z M464,188c5.827,0,11.289-1.573,16-4.305V204h-32v-20.305C452.711,186.427,458.173,188,464,188z
	 M16,220h32v16c0,5.926,1.625,11.477,4.444,16.242l-9.64,9.64C39.427,260.667,35.791,260,32,260c-4.418,0-8,3.582-8,8s3.582,8,8,8
	c8.822,0,16,7.177,16,16v8H16V220z M56.207,271.106l7.551-7.551C68.523,266.375,74.074,268,80,268c4.418,0,8-3.582,8-8s-3.582-8-8-8
	c-8.822,0-16-7.177-16-16v-16h32v80H64v-8C64,284.019,61.056,276.718,56.207,271.106z M144,220v80h-8v-80H144z M120,300h-8v-80h8
	V300z M96,316v16H64v-16H96z M112,316h32v16h-32V316z M160,316h32v16h-32V316z M160,300v-80h32v16
	c0,6.315,1.847,12.204,5.017,17.169l-9.13,9.129C184.209,260.822,180.2,260,176,260c-4.418,0-8,3.582-8,8s3.582,8,8,8
	c8.822,0,16,7.177,16,16v8H160z M200.892,271.922l7.818-7.818c4.546,2.483,9.756,3.896,15.29,3.896c4.418,0,8-3.582,8-8
	s-3.582-8-8-8c-8.822,0-16-7.177-16-16v-16h32v80h-32v-8C208,284.401,205.333,277.417,200.892,271.922z M256,220h32v16
	c0,6.315,1.847,12.204,5.017,17.169l-9.13,9.129C280.209,260.822,276.2,260,272,260c-4.418,0-8,3.582-8,8s3.582,8,8,8
	c8.822,0,16,7.177,16,16v8h-32V220z M296.892,271.922l7.818-7.818c4.546,2.483,9.756,3.896,15.29,3.896c4.418,0,8-3.582,8-8
	s-3.582-8-8-8c-8.822,0-16-7.177-16-16v-16h32v80h-32v-8C304,284.401,301.333,277.417,296.892,271.922z M384,220v80h-8v-80H384z
	 M360,300h-8v-80h8V300z M336,316v16h-32v-16H336z M352,316h32v16h-32V316z M400,316h32v16h-32V316z M400,300v-80h32v16
	c0,6.315,1.847,12.204,5.017,17.169l-9.13,9.129C424.209,260.822,420.2,260,416,260c-4.418,0-8,3.582-8,8s3.582,8,8,8
	c8.822,0,16,7.177,16,16v8H400z M440.892,271.922l7.818-7.818c4.546,2.483,9.756,3.896,15.29,3.896c4.418,0,8-3.582,8-8
	s-3.582-8-8-8c-8.822,0-16-7.177-16-16v-16h32v80h-32v-8C448,284.401,445.333,277.417,440.892,271.922z M416,188
	c5.827,0,11.289-1.573,16-4.305V204h-32v-20.305C404.711,186.427,410.173,188,416,188z M368,188c5.827,0,11.289-1.573,16-4.305V204
	h-32v-20.305C356.711,186.427,362.173,188,368,188z M320,188c5.827,0,11.289-1.573,16-4.305V204h-32v-20.305
	C308.711,186.427,314.173,188,320,188z M272,188c5.827,0,11.289-1.573,16-4.305V204h-32v-20.305
	C260.711,186.427,266.173,188,272,188z M224,188c5.827,0,11.289-1.573,16-4.305V204h-32v-20.305
	C212.711,186.427,218.173,188,224,188z M176,188c5.827,0,11.289-1.573,16-4.305V204h-32v-20.305
	C164.711,186.427,170.173,188,176,188z M128,188c5.827,0,11.289-1.573,16-4.305V204h-32v-20.305
	C116.711,186.427,122.173,188,128,188z M80,188c5.827,0,11.289-1.573,16-4.305V204H64v-20.305C68.711,186.427,74.173,188,80,188z
	 M32,188c5.827,0,11.289-1.573,16-4.305V204H16v-20.305C20.711,186.427,26.173,188,32,188z M16,316h32v16H16V316z M208,332v-16h32
	v16H208z M256,316h32v16h-32V316z M448,332v-16h32v16H448z"/>
<g>
</g>
<g>
</g>
<g>
</g>
<g>
</g>
<g>
</g>
<g>
</g>
<g>
</g>
<g>
</g>
<g>
</g>
<g>
</g>
<g>
</g>
<g>
</g>
<g>
</g>
<g>
</g>
<g>
</g>
</svg>
